<?xml version="1.0" encoding="UTF-8" standalone="no"?>
<!-- Created with Inkscape (http://www.inkscape.org/) -->

<svg
   xmlns:dc="http://purl.org/dc/elements/1.1/"
   xmlns:cc="http://creativecommons.org/ns#"
   xmlns:rdf="http://www.w3.org/1999/02/22-rdf-syntax-ns#"
   xmlns:svg="http://www.w3.org/2000/svg"
   xmlns="http://www.w3.org/2000/svg"
   xmlns:sodipodi="http://sodipodi.sourceforge.net/DTD/sodipodi-0.dtd"
   xmlns:inkscape="http://www.inkscape.org/namespaces/inkscape"
   width="200.15103"
   height="201.64275"
   id="svg5388"
   version="1.1"
   inkscape:version="0.48.5 r10040"
   sodipodi:docname="New document 20">
  <defs
     id="defs5390" />
  <sodipodi:namedview
     id="base"
     pagecolor="#ffffff"
     bordercolor="#666666"
     borderopacity="1.0"
     inkscape:pageopacity="0.0"
     inkscape:pageshadow="2"
     inkscape:zoom="0.35"
     inkscape:cx="140.7898"
     inkscape:cy="-81.95062"
     inkscape:document-units="px"
     inkscape:current-layer="layer1"
     showgrid="false"
     fit-margin-top="0"
     fit-margin-left="0"
     fit-margin-right="0"
     fit-margin-bottom="0"
     inkscape:window-width="956"
     inkscape:window-height="1161"
     inkscape:window-x="2880"
     inkscape:window-y="37"
     inkscape:window-maximized="0" />
  <metadata
     id="metadata5393">
    <rdf:RDF>
      <cc:Work
         rdf:about="">
        <dc:format>image/svg+xml</dc:format>
        <dc:type
           rdf:resource="http://purl.org/dc/dcmitype/StillImage" />
        <dc:title></dc:title>
      </cc:Work>
    </rdf:RDF>
  </metadata>
  <g
     inkscape:label="Layer 1"
     inkscape:groupmode="layer"
     id="layer1"
     transform="translate(-234.21019,-248.76882)">
    <path
       style="fill:#0081b0;fill-opacity:1"
       d="m 255.04408,449.24281 c -5.33819,-1.72587 -8.77638,-3.71112 -12.45889,-7.19387 -3.95178,-3.73744 -6.04936,-7.0974 -7.4599,-11.94944 -0.92306,-3.17523 -1.00758,-11.27158 -0.85381,-81.77949 l 0.17066,-78.25535 2.17353,-4.42369 c 3.89939,-7.93626 11.77784,-13.94312 20.793,-15.85347 6.47979,-1.37309 146.72163,-1.35116 153.25932,0.0239 11.88591,2.50007 21.01682,11.27268 23.11017,22.20332 0.52505,2.7416 0.67208,24.80003 0.53435,80.16797 l -0.19001,76.38567 -1.49405,3.70433 c -3.06439,7.59783 -10.58288,14.3163 -18.89364,16.88324 -4.07107,1.25742 -5.60975,1.28153 -79.67774,1.24809 -70.60161,-0.0318 -75.75385,-0.10759 -79.01299,-1.16129 z m 17.74937,-85.61853 c 0,-30.4261 0.25785,-33.34967 3.20094,-36.29277 3.23519,-3.23519 9.75406,-2.00049 11.45634,2.16988 0.65725,1.61017 0.89387,8.83895 1.04853,32.03151 l 0.19973,29.95205 10.70784,0 10.70784,0 0.19809,-29.63511 c 0.21466,-32.11427 0.29079,-32.82842 3.75866,-35.2574 1.73496,-1.21521 5.51546,-1.34803 7.86745,-0.27639 3.76188,1.71403 3.76801,1.76796 3.97289,34.89989 l 0.18716,30.26901 20.52333,0 20.52332,0 5.20039,-9.98402 c 2.86021,-5.49121 6.04854,-11.49402 7.08519,-13.33959 l 1.88479,-3.35556 6.56221,13.33958 6.5622,13.33959 12.39268,0 c 8.91929,0 12.39269,-0.2044 12.39269,-0.72924 0,-0.4011 -4.86961,-9.55617 -10.82135,-20.34464 -6.37244,-11.55106 -10.66988,-20.01003 -10.45296,-20.57534 0.20261,-0.52798 4.78695,-8.88148 10.18744,-18.56335 5.40047,-9.68186 9.81905,-17.78735 9.81905,-18.0122 0,-0.22485 -5.02625,-0.33092 -11.16944,-0.23571 l -11.16945,0.1731 -2.67584,4.7543 c -1.47171,2.61485 -4.31825,7.69983 -6.32565,11.29995 l -3.64984,6.54566 -5.6077,-11.45843 -5.60771,-11.45844 -12.3959,0 c -6.81777,0 -12.39593,0.14543 -12.39593,0.32317 0,0.17774 4.69644,8.58047 10.43655,18.67276 l 10.43655,18.34959 -9.64416,17.14189 -9.64417,17.14187 -0.31696,-30.58491 -0.31695,-30.58491 -1.78562,-3.03779 c -3.62387,-6.16506 -10.08854,-9.02266 -19.38793,-8.57011 -6.47603,0.31516 -11.12129,2.1655 -15.44733,6.1531 l -2.8018,2.58262 -1.90913,-2.37565 c -1.05003,-1.30662 -3.4476,-3.22769 -5.32794,-4.26907 -3.21402,-1.77999 -3.83652,-1.89341 -10.39179,-1.89341 -8.23344,0 -11.6749,1.21162 -15.63966,5.50623 l -2.42665,2.62854 0,-3.59196 0,-3.59196 -11.09336,0 -11.09335,0 0,39.30217 0,39.30217 11.09335,0 11.09336,0 0,-27.86067 z"
       id="path5364"
       inkscape:connector-curvature="0" />
  </g>
</svg>
